<?xml version="1.0" encoding="UTF-8"?>
<svg xmlns="http://www.w3.org/2000/svg" viewBox="0 0 50 50">
  <defs>
    <style>
      .cls-1 { fill: #666; }
    </style>
  </defs>
  <path class="cls-1" d="M5,6h18v3H15.5l-1.2,3H18v3h-5.3l-3.4,8.5L7,22.5 11.3,12h-3.3l1.2-3H5V6zM12.7,15H9.3L11,11l1.7,4z"/>
  <path class="cls-1" d="M27,20h-4l-2.5,6H18l8-19h3l8,19h-2.5L32,20h-5zM28,17.5l-1.7-4h-.6l-1.7,4h4z"/>
  <rect class="cls-1" x="3" y="3" width="22" height="2"/>
  <rect class="cls-1" x="3" y="3" width="2" height="22"/>
  <rect class="cls-1" x="3" y="23" width="16" height="2"/>
  <rect class="cls-1" x="25" y="25" width="22" height="2"/>
  <rect class="cls-1" x="45" y="25" width="2" height="22"/>
  <rect class="cls-1" x="25" y="45" width="22" height="2"/>
  <rect class="cls-1" x="25" y="25" width="2" height="10"/>
  <path class="cls-1" d="M30,30h12v3H30z"/>
  <path class="cls-1" d="M33,33v3c-2,1-4,1.5-6,2l.5,2.5c2.5-.5,5-1.5,7-3 2,1.5,4.5,2.5,7,3l.5-2.5c-2-.5-4-1-6-2v-3h-3z"/>
</svg>