<?xml version="1.0" encoding="utf-8"?>
<!-- Generator: Adobe Illustrator 28.1.0, SVG Export Plug-In . SVG Version: 6.00 Build 0)  -->
<!DOCTYPE svg PUBLIC "-//W3C//DTD SVG 1.1//EN" "http://www.w3.org/Graphics/SVG/1.1/DTD/svg11.dtd" [
	<!ENTITY ns_extend "http://ns.adobe.com/Extensibility/1.0/">
	<!ENTITY ns_ai "http://ns.adobe.com/AdobeIllustrator/10.0/">
	<!ENTITY ns_graphs "http://ns.adobe.com/Graphs/1.0/">
	<!ENTITY ns_vars "http://ns.adobe.com/Variables/1.0/">
	<!ENTITY ns_imrep "http://ns.adobe.com/ImageReplacement/1.0/">
	<!ENTITY ns_sfw "http://ns.adobe.com/SaveForWeb/1.0/">
	<!ENTITY ns_custom "http://ns.adobe.com/GenericCustomNamespace/1.0/">
	<!ENTITY ns_adobe_xpath "http://ns.adobe.com/XPath/1.0/">
]>
<svg version="1.1" id="レイヤー_1" xmlns:x="&ns_extend;" xmlns:i="&ns_ai;" xmlns:graph="&ns_graphs;"
	 xmlns="http://www.w3.org/2000/svg" xmlns:xlink="http://www.w3.org/1999/xlink" x="0px" y="0px" viewBox="0 0 30.7 27.2"
	 style="enable-background:new 0 0 30.7 27.2;" xml:space="preserve">
<style type="text/css">
	.st0{fill:#F1C5B0;}
	.st1{fill:#CA3A6B;}
</style>
<metadata>
	<sfw  xmlns="&ns_sfw;">
		<slices></slices>
		<sliceSourceBounds  bottomLeftOrigin="true" height="27.2" width="30.7" x="-551.7" y="-217"></sliceSourceBounds>
	</sfw>
</metadata>
<path class="st0" d="M30.5,19c-0.4-0.8-1.8-1.1-4-0.6c-2.1,0.5-6.1,1.5-7.9,1.9c-0.2,0-0.3,0.2-0.3,0.4c-0.1,0.6-0.5,1.2-1.1,1.6
	c-0.8,0.5-1.6,0.7-2.3,0.7c-0.8,0-1.5-0.2-1.8-0.3c-0.9-0.3-3.6-1.1-3.7-1.2c-0.5-0.2-0.7-0.7-0.6-1.1c0.2-0.5,0.7-0.7,1.1-0.6
	c0,0,2.7,0.9,3.6,1.1c0.7,0.2,1.8,0.4,2.7-0.2c0.4-0.2,0.4-0.5,0.4-0.6c0-0.4-0.2-0.9-0.7-1.1c-1.6-0.5-5-1.6-7.3-2.3
	c-1.5-0.4-3.1-0.2-4.3,0.7L0,20.6l4.6,6.3l2.2-1.6c0.5-0.3,1.1-0.4,1.6-0.2l5.1,1.9c1,0.4,2.2,0.4,3.2,0c3.3-1.2,10.8-4.1,12.3-4.7
	C30.8,21.3,30.9,19.8,30.5,19z"/>
<path class="st1" d="M24.2,0.3c-2.4-1-5.2,0.2-6.8,2.9c-1.6-2.7-4.4-3.9-6.8-2.9C7.9,1.4,7.1,4.5,8.4,7.5c2,4.6,9,8.6,9,8.6
	s7-4,9-8.6C27.7,4.5,26.9,1.4,24.2,0.3z"/>
</svg>
